# xmcd
#
# Track frame offsets:
#	150
#	22532
#	44634
#	62925
#	83224
#	96951
#	114313
#	131037
#	154033
#	171737
#	195511
#	221463
# Disc length: 3189 seconds
# Revision: 1
# Processed by: cddbd v1.5.1PL0 Copyright (c) Steve Scherf et al.
#
# Submitted via: libkcddb 0.20
#
DISCID=a30c730c
DTITLE=Various Artist - Funk 2
DYEAR=2003
DGENRE=Funk
TTITLE0=Wild Cherry - Play That funky Music
TTITLE1=Kool and The Gang - Get Down On It
TTITLE2=Hot Chocolate - You Sexy Thing
TTITLE3=Ohio Players - Fire
TTITLE4=The Average White Band - Pick Up The Pieces
TTITLE5=Rick James - Give It To Me Baby
TTITLE6=A Taste Of Honey - Boogie Oogie Oogie
TTITLE7=Rose Royce - Car Wash
TTITLE8=Carl Carlton - She's A Bad Mama Jama
TTITLE9=James Brown - Get Up - Sex Machine
TTITLE10=Parliament - Tear The Roof Off The Sucker
TTITLE11=Lipps, Inc - Funkytown
EXTD=Original Masters
EXTT0=
EXTT1=
EXTT2=
EXTT3=
EXTT4=
EXTT5=
EXTT6=
EXTT7=
EXTT8=She's Built, She's Stacked
EXTT9=
EXTT10=Give Up The Funk
EXTT11=
PLAYORDER=
